<svg width="48" height="48" viewBox="0 0 48 48" fill="none" xmlns="http://www.w3.org/2000/svg"><g clip-path="url(#a)"><rect width="48" height="48" rx="8" fill="#fff"/><path d="M35.27 25.636a2.61 2.61 0 0 1-3.129-1.956 10.43 10.43 0 0 0-5.943-7.196c-.75-.333-1.3-1-1.485-1.8l-1.072-4.646a7.83 7.83 0 0 0-2.956 3.434l-.528 1.192a2.61 2.61 0 0 1-1.799 1.486L9.461 18.2A13.044 13.044 0 0 0-.318 33.84l.586 2.542a10.43 10.43 0 0 0 5.943 7.197 2.61 2.61 0 0 1 1.486 1.799l1.758 7.626 5.084-1.173-1.172-5.084a2.61 2.61 0 0 1 1.956-3.128l7.625-1.758a2.61 2.61 0 0 1 3.128 1.956l1.173 5.084 5.084-1.172-1.759-7.626a2.61 2.61 0 0 1 1.183-2.813 5.64 5.64 0 0 0 2.674-4.276l.028-.208a2.61 2.61 0 0 1 1.983-2.087l2.541-.587-1.172-5.083zM23.954 22.89a2.609 2.609 0 0 1 1.172 5.084l-.025.006a2.609 2.609 0 0 1-1.173-5.084zm20.112 6.071a5.22 5.22 0 0 1-3.911 6.256l-.89.205a10.85 10.85 0 0 1-3.227 5.162l1.377 5.973a5.22 5.22 0 0 1-3.911 6.256l-5.084 1.173a5.22 5.22 0 0 1-6.256-3.912l-.586-2.542-2.542.586.586 2.542a5.217 5.217 0 0 1-3.912 6.256l-5.084 1.172a5.22 5.22 0 0 1-6.256-3.911L2.89 47.75a15.65 15.65 0 0 1-7.705-10.195 7.826 7.826 0 0 1-9.384-5.868l-.587-2.542a2.609 2.609 0 0 1 5.084-1.172l.586 2.542a2.61 2.61 0 0 0 3.128 1.956l.183-.043A18.26 18.26 0 0 1 8.29 13.117l7.626-1.758A13.04 13.04 0 0 1 24.91 3.93a2.61 2.61 0 0 1 3.128 1.955l1.482 6.426a15.65 15.65 0 0 1 6.904 7.703l.215-.05a5.22 5.22 0 0 1 6.256 3.912z" fill="#3d38f5"/></g><defs><clipPath id="a"><rect width="48" height="48" rx="8" fill="#fff"/></clipPath></defs></svg>